<?xml version="1.0" encoding="UTF-8"?>
<svg version="1.1" xmlns="http://www.w3.org/2000/svg" width="64" height="45">
<path d="M0 0 C1.35677101 -0.00956978 1.35677101 -0.00956978 2.74095154 -0.01933289 C3.71081497 -0.02044571 4.68067841 -0.02155853 5.67993164 -0.02270508 C6.68343155 -0.02603348 7.68693146 -0.02936188 8.72084045 -0.03279114 C10.84155825 -0.03785001 12.96228399 -0.04019978 15.08300781 -0.04003906 C18.32443362 -0.04222577 21.56551915 -0.06039323 24.80688477 -0.0793457 C26.86873256 -0.0822798 28.93058197 -0.08426449 30.99243164 -0.08520508 C31.96027084 -0.09239059 32.92811005 -0.09957611 33.92527771 -0.10697937 C39.3679323 -0.08853092 43.77278191 -0.0149341 48.15258789 3.58276367 C51.81381224 8.15929411 50.62673764 14.95930977 50.64282227 20.48706055 C50.65252111 22.50636093 50.68355545 24.52463979 50.71508789 26.54370117 C50.72282227 28.46182617 50.72282227 28.46182617 50.73071289 30.41870117 C50.74005859 31.58836426 50.7494043 32.75802734 50.7590332 33.96313477 C50.25726408 38.44262704 48.54486995 41.00298161 45.40258789 44.14526367 C40.59210484 45.61879244 35.48316824 45.30719079 30.50024414 45.31323242 C29.54492294 45.31656082 28.58960175 45.31988922 27.60533142 45.32331848 C25.58894328 45.32837121 23.57254681 45.33072732 21.55615234 45.33056641 C18.47943299 45.33275347 15.40307203 45.35092842 12.32641602 45.36987305 C10.36352661 45.37280723 8.40063551 45.37479186 6.43774414 45.37573242 C5.52195084 45.38291794 4.60615753 45.39010345 3.66261292 45.39750671 C-1.82261101 45.37798157 -6.92175858 45.26733372 -11.40991211 41.70776367 C-14.95805242 37.039158 -13.821486 30.3572871 -13.83764648 24.8034668 C-13.84734533 22.78416642 -13.87837967 20.76588756 -13.90991211 18.74682617 C-13.91506836 17.46807617 -13.92022461 16.18932617 -13.92553711 14.87182617 C-13.93488281 13.70216309 -13.94422852 12.5325 -13.95385742 11.32739258 C-13.4520883 6.8479003 -11.73969417 4.28754573 -8.59741211 1.14526367 C-5.70763249 0.17670892 -3.03339882 0.01457689 0 0 Z " fill="#FF0101" transform="translate(13.597412109375,-0.145263671875)"/>
<path d="M0 0 C4.04849147 1.01212287 6.68927901 2.43380811 10.25 4.5625 C11.32765625 5.20316406 12.4053125 5.84382813 13.515625 6.50390625 C14.33546875 6.99761719 15.1553125 7.49132812 16 8 C12.89656252 10.57063494 9.84351111 12.80764414 6.3125 14.75 C5.16201172 15.39195313 5.16201172 15.39195313 3.98828125 16.046875 C2 17 2 17 0 17 C0 11.39 0 5.78 0 0 Z " fill="#FFF8F8" transform="translate(26,14)"/>
</svg>
